<?xml version="1.0" standalone="no"?>
<!DOCTYPE svg PUBLIC "-//W3C//DTD SVG 20010904//EN"
 "http://www.w3.org/TR/2001/REC-SVG-20010904/DTD/svg10.dtd">
<svg version="1.0" xmlns="http://www.w3.org/2000/svg"
 width="420.000000pt" height="222.000000pt" viewBox="0 0 420.000000 222.000000"
 preserveAspectRatio="xMidYMid meet">
<metadata>
Created by potrace 1.10, written by Peter Selinger 2001-2011
</metadata>
<g transform="translate(0.000000,222.000000) scale(0.100000,-0.100000)"
fill="#82985d" stroke="none">
<path d="M1766 2015 c-49 -7 -115 -13 -148 -13 -32 0 -64 -5 -71 -10 -7 -6
-48 -14 -91 -18 -43 -4 -80 -12 -82 -18 -3 -8 -35 -12 -89 -13 -64 0 -87 -4
-100 -17 -9 -9 -31 -16 -49 -16 -18 0 -36 -3 -40 -7 -4 -4 -31 -13 -59 -20
-82 -18 -141 -35 -159 -44 -10 -5 -24 -9 -32 -9 -7 0 -24 -8 -37 -19 -13 -10
-30 -16 -37 -13 -7 2 -23 -5 -35 -16 -12 -11 -51 -28 -87 -38 -36 -10 -84 -31
-107 -48 -22 -17 -54 -39 -70 -48 -15 -10 -35 -22 -43 -27 -8 -5 -33 -17 -54
-27 -22 -11 -59 -37 -81 -59 -23 -22 -48 -45 -56 -51 -8 -6 -39 -42 -69 -79
-30 -37 -65 -79 -78 -93 -12 -14 -27 -43 -32 -66 -6 -23 -14 -54 -20 -71 -5
-16 -14 -58 -19 -93 -5 -34 -13 -67 -16 -72 -3 -5 1 -30 10 -55 8 -25 15 -59
15 -76 0 -17 15 -63 33 -102 29 -62 54 -93 175 -214 88 -89 152 -145 169 -149
16 -4 44 -20 64 -35 20 -16 44 -29 53 -29 8 0 31 -13 49 -30 21 -18 46 -30 63
-30 24 0 104 -34 247 -106 16 -8 46 -14 67 -14 21 0 41 -4 44 -9 8 -12 98 -40
153 -48 27 -3 59 -11 73 -18 32 -16 130 -37 200 -42 30 -2 62 -7 70 -10 24 -9
188 -13 655 -13 452 -1 576 6 749 44 38 9 72 14 74 11 3 -2 17 2 32 10 28 14
79 29 155 45 42 8 98 27 128 42 10 5 53 22 95 38 166 62 274 116 335 167 16
13 36 23 45 23 26 1 241 186 286 247 22 29 43 53 48 53 4 0 8 6 8 14 0 8 14
50 31 93 29 74 31 85 30 216 0 107 -4 143 -16 160 -8 12 -15 27 -15 34 0 28
-96 167 -157 228 -37 36 -69 65 -73 65 -3 0 -30 23 -58 50 -32 31 -61 50 -75
50 -14 0 -35 13 -50 30 -15 17 -34 30 -42 30 -9 0 -33 11 -55 25 -22 14 -44
25 -50 25 -6 0 -36 14 -67 30 -31 17 -61 30 -68 30 -7 0 -18 7 -25 15 -7 8
-28 15 -48 15 -19 0 -43 7 -51 14 -9 8 -33 17 -54 19 -21 2 -43 9 -49 15 -7 7
-23 12 -37 12 -13 0 -33 7 -43 17 -12 10 -33 16 -62 15 -28 -1 -48 3 -56 13
-9 11 -33 15 -85 15 -52 0 -74 4 -78 14 -4 9 -33 16 -89 21 -45 4 -87 10 -93
15 -5 4 -59 10 -120 14 -60 3 -127 10 -147 15 -59 14 -530 11 -632 -4z m704
-48 c175 -16 266 -28 350 -48 25 -6 70 -15 100 -19 107 -17 302 -71 362 -101
10 -5 27 -9 38 -9 11 0 45 -13 75 -29 30 -16 68 -32 84 -36 16 -3 35 -13 42
-21 6 -8 17 -14 24 -14 14 0 76 -30 85 -41 3 -3 23 -14 45 -24 112 -52 320
-247 366 -345 45 -94 50 -110 56 -204 5 -79 3 -102 -16 -155 -32 -93 -93 -181
-184 -267 -124 -117 -243 -189 -501 -304 -159 -70 -464 -149 -701 -181 -38 -5
-101 -13 -140 -19 -38 -5 -245 -9 -460 -10 -383 0 -519 8 -663 40 -23 6 -54
10 -68 10 -28 0 -215 46 -339 83 -508 154 -834 392 -922 675 -23 75 -25 89
-15 145 28 170 148 344 312 455 30 20 61 43 68 50 7 6 20 12 28 12 8 0 14 5
14 10 0 6 5 10 11 10 7 0 34 13 60 30 27 16 60 32 73 36 14 3 30 12 37 20 6 8
19 14 29 14 10 0 40 11 67 23 57 28 103 45 158 59 22 5 49 14 60 18 11 5 36
12 55 16 19 3 41 10 50 15 8 4 49 15 90 23 41 8 100 20 130 26 91 19 229 40
325 51 50 5 122 13 160 18 99 12 448 6 655 -12z"/>
<path d="M1815 1851 c-27 -12 -75 -61 -86 -89 -23 -61 8 -122 63 -122 36 0
104 53 128 101 19 35 20 45 9 70 -18 45 -62 61 -114 40z"/>
<path d="M1658 1626 c-91 -39 -168 -185 -168 -322 0 -78 22 -146 101 -309 18
-37 33 -158 42 -340 1 -37 6 -50 17 -50 15 0 28 50 49 190 5 33 16 85 26 115
9 30 19 76 22 103 6 60 23 66 147 43 144 -25 145 -25 210 47 115 126 129 138
180 164 60 30 88 52 80 64 -3 5 -32 9 -66 9 -33 0 -86 6 -117 14 -31 8 -77 17
-103 21 l-48 6 -124 -125 c-68 -69 -129 -126 -136 -126 -23 0 -70 -35 -70 -52
0 -35 -35 -19 -61 30 -44 78 -48 212 -5 151 9 -13 16 -29 16 -35 0 -6 7 -18
16 -25 12 -10 14 -23 10 -51 -7 -43 -4 -46 23 -19 29 29 38 50 45 111 8 59 44
145 82 197 31 41 30 53 -4 53 -38 0 -97 -52 -128 -111 -26 -53 -48 -69 -67
-50 -22 22 30 225 63 246 12 7 13 52 3 58 -5 2 -20 -1 -35 -7z m422 -396 c0
-12 -59 -80 -70 -80 -14 0 -4 50 13 71 17 20 57 26 57 9z"/>
<path d="M1915 1609 c-24 -21 -35 -40 -35 -58 0 -32 27 -61 58 -61 26 0 102
70 102 94 0 63 -66 76 -125 25z"/>
<path d="M2284 1461 c-17 -16 -37 -30 -45 -33 -7 -2 -10 -11 -6 -20 7 -20 138
-52 148 -37 6 11 -47 119 -59 119 -4 0 -21 -13 -38 -29z"/>
<path d="M2562 1205 c-16 -12 -22 -26 -22 -56 0 -29 -4 -39 -16 -39 -11 0 -15
9 -14 33 3 54 1 67 -14 67 -27 0 -36 -26 -29 -81 6 -42 13 -56 31 -64 28 -12
28 -32 0 -56 -20 -16 -21 -20 -8 -29 22 -15 69 -4 90 22 13 16 19 39 20 74 0
28 3 64 6 80 3 17 0 36 -8 47 -12 16 -15 16 -36 2z"/>
<path d="M2351 1199 c-13 -5 -39 -7 -57 -3 -28 5 -37 2 -59 -22 -22 -24 -25
-36 -23 -78 3 -47 5 -51 28 -51 22 0 26 5 30 48 6 61 24 66 28 7 6 -80 42 -78
42 3 0 31 3 38 18 35 13 -3 16 -12 14 -39 -2 -23 3 -41 13 -49 26 -21 36 1 33
70 -3 72 -24 96 -67 79z"/>
<path d="M290 1022 c0 -10 -29 -49 -52 -70 -18 -17 -25 -62 -10 -62 5 0 19 -8
30 -17 52 -43 78 -57 99 -55 17 3 23 -2 23 -17 0 -32 15 -32 48 1 22 21 32 26
32 15 0 -8 -4 -17 -10 -19 -14 -5 -17 -50 -4 -55 7 -2 21 11 33 30 22 37 28
87 10 87 -6 0 -28 14 -49 30 -21 17 -42 30 -46 30 -5 0 -20 -16 -33 -35 l-23
-34 -29 29 c-38 38 -38 54 1 46 22 -4 32 -1 36 9 4 8 14 15 23 15 32 0 32 13
-1 47 -29 30 -78 46 -78 25z m120 -177 c0 -8 -7 -15 -15 -15 -8 0 -15 7 -15
15 0 8 7 15 15 15 8 0 15 -7 15 -15z"/>
<path d="M3883 970 c-51 -21 -54 -89 -5 -114 23 -12 31 -12 53 0 41 21 43 41
8 85 -17 21 -31 39 -32 38 -1 0 -12 -4 -24 -9z"/>
<path d="M1825 957 c-52 -31 -65 -50 -65 -99 0 -39 6 -54 31 -83 41 -47 86
-49 123 -4 29 35 32 47 13 73 -19 27 -63 18 -59 -11 5 -32 -35 -31 -49 1 -15
33 2 62 46 76 36 12 44 27 23 48 -15 15 -37 15 -63 -1z"/>
<path d="M2777 963 c-3 -5 -4 -55 -3 -113 l1 -105 30 0 30 0 3 99 c2 64 -1
103 -9 112 -12 15 -45 19 -52 7z"/>
<path d="M2418 948 c-2 -7 -1 -56 2 -108 5 -87 7 -95 25 -95 15 0 22 10 29 38
11 44 23 48 32 10 9 -37 23 -53 45 -53 24 0 25 31 3 65 -11 17 -14 36 -10 55
7 38 -18 53 -39 24 -18 -25 -29 -12 -30 34 0 32 -3 37 -26 40 -15 2 -28 -2
-31 -10z"/>
<path d="M2171 901 c-21 -16 -24 -27 -25 -87 -1 -64 1 -69 22 -72 23 -3 27 7
23 56 -1 12 5 32 14 44 32 47 7 90 -34 59z"/>
<path d="M1967 894 c-11 -12 5 -118 21 -136 21 -24 65 -23 88 3 13 15 19 36
19 77 0 50 -2 57 -20 57 -16 0 -21 -8 -23 -42 -3 -34 -7 -43 -22 -43 -15 0
-19 9 -22 42 -3 41 -22 60 -41 42z"/>
<path d="M2251 891 c-18 -12 -10 -91 13 -126 25 -38 80 -35 101 6 10 18 15 48
13 77 -3 39 -6 47 -23 47 -16 0 -21 -8 -25 -45 -6 -58 -24 -58 -30 0 -5 46
-21 59 -49 41z"/>
<path d="M2600 842 c0 -48 4 -62 23 -80 58 -54 113 -5 105 94 -2 31 -7 39 -23
39 -17 0 -20 -7 -20 -40 0 -29 -4 -40 -17 -43 -13 -3 -17 6 -20 40 -2 36 -7
44 -25 46 -22 3 -23 0 -23 -56z"/>
<path d="M3751 874 c-28 -36 -26 -60 7 -90 15 -14 34 -32 44 -41 12 -11 21
-12 36 -4 32 17 36 47 12 94 -37 72 -66 84 -99 41z m53 -40 c10 -26 7 -34 -14
-34 -13 0 -20 7 -20 18 0 33 23 44 34 16z"/>
<path d="M3615 831 c-10 -17 7 -151 21 -162 21 -17 42 -4 46 28 3 26 6 28 41
25 36 -3 38 -2 32 20 -4 13 -12 25 -17 26 -5 2 -25 19 -45 38 -35 33 -66 43
-78 25z"/>
<path d="M506 756 c-51 -77 -49 -86 22 -79 31 3 61 9 67 14 17 17 25 9 25 -25
0 -25 6 -38 26 -51 23 -15 27 -15 50 0 13 8 24 20 24 25 0 6 7 10 15 10 18 0
18 2 4 33 -16 36 -55 54 -79 39 -30 -19 -40 -14 -40 17 0 30 -38 71 -65 71 -7
0 -29 -24 -49 -54z m74 -21 c0 -16 -27 -32 -37 -22 -3 4 -3 13 0 22 8 20 37
20 37 0z m105 -64 c7 -12 -12 -24 -25 -16 -11 7 -4 25 10 25 5 0 11 -4 15 -9z"/>
<path d="M3440 737 c0 -17 30 -79 43 -88 5 -4 7 -15 4 -25 -5 -18 -5 -17 -12
2 -9 28 -51 47 -73 35 -12 -7 -17 -25 -19 -59 -1 -43 2 -51 23 -62 20 -11 27
-11 41 2 10 8 26 18 36 21 9 4 17 11 17 17 0 5 11 10 23 10 13 0 26 3 29 6 4
3 -11 38 -31 77 -27 52 -43 73 -59 75 -14 2 -22 -2 -22 -11z"/>
<path d="M761 658 c-22 -36 -31 -86 -16 -98 9 -7 16 -6 25 5 18 21 43 19 36
-2 -8 -27 8 -46 33 -38 11 3 21 12 21 19 0 8 7 19 15 26 19 16 16 55 -5 55 -8
0 -19 6 -23 13 -4 6 -16 12 -26 12 -11 0 -21 7 -25 15 -8 21 -19 19 -35 -7z"/>
<path d="M3267 643 c-12 -12 -7 -50 8 -63 8 -7 15 -21 15 -30 0 -25 46 -59 70
-53 27 7 25 32 -4 42 -26 10 -41 37 -26 46 16 10 11 35 -7 35 -9 0 -24 7 -33
15 -9 8 -20 12 -23 8z"/>
<path d="M3207 614 c-4 -4 -7 -18 -7 -31 0 -17 -6 -23 -22 -23 -35 -1 -68 -34
-68 -68 0 -16 10 -40 23 -54 12 -14 27 -33 33 -43 10 -18 11 -18 37 1 15 11
27 29 27 42 0 12 7 25 15 27 52 16 49 14 31 33 -9 10 -16 26 -16 35 0 9 -5 19
-10 22 -6 4 -16 20 -23 37 -7 16 -15 26 -20 22z m-19 -131 c2 -8 -6 -13 -22
-13 -17 0 -26 5 -26 16 0 19 41 16 48 -3z"/>
<path d="M907 572 c-35 -39 -3 -112 45 -104 11 2 25 -4 32 -14 17 -22 43 -12
56 20 5 13 16 29 26 34 11 6 14 16 9 31 -5 18 -12 21 -34 16 -20 -4 -32 0 -46
15 -23 25 -66 26 -88 2z m88 -80 c-3 -4 -10 0 -15 8 -6 9 -5 17 3 22 13 8 24
-19 12 -30z"/>
<path d="M1112 537 c-12 -13 -22 -29 -22 -37 0 -7 -5 -28 -12 -47 -15 -40 -6
-51 27 -33 18 10 25 22 25 44 0 17 7 40 15 50 34 44 5 64 -33 23z"/>
<path d="M3027 543 c-4 -3 -7 -17 -7 -30 0 -27 0 -27 -36 -8 -30 15 -70 11
-93 -10 -11 -11 -11 -23 3 -76 8 -34 21 -66 28 -71 40 -25 92 13 103 74 l7 43
12 -35 c7 -19 21 -37 31 -39 16 -3 17 2 11 38 -5 33 -42 121 -50 121 -2 0 -6
-3 -9 -7z m-49 -82 c21 -13 11 -55 -14 -59 -16 -2 -23 4 -28 23 -10 40 9 57
42 36z"/>
<path d="M1167 493 c-4 -3 -7 -15 -7 -25 0 -10 -7 -30 -16 -43 -9 -13 -13 -29
-9 -35 13 -21 36 -9 51 26 19 45 40 32 35 -21 -3 -43 25 -50 35 -8 7 25 8 25
15 8 4 -11 8 -37 8 -57 2 -68 64 -60 101 12 29 58 26 85 -11 100 -24 10 -36
11 -50 2 -28 -18 -38 -15 -66 18 -24 29 -69 41 -86 23z m181 -100 c-2 -10 -10
-18 -18 -18 -8 0 -16 8 -18 18 -2 12 3 17 18 17 15 0 20 -5 18 -17z"/>
<path d="M1484 435 c-19 -29 -34 -98 -27 -125 6 -22 79 -38 96 -21 13 13 1 27
-27 33 -27 4 -33 28 -7 28 26 0 36 17 21 35 -10 12 -9 15 7 15 19 0 43 17 43
31 0 4 -12 10 -27 13 -16 4 -36 9 -45 12 -11 3 -23 -4 -34 -21z"/>
<path d="M2536 413 c-3 -16 -2 -55 2 -88 5 -47 11 -61 26 -63 28 -6 38 11 26
43 -6 16 -7 32 -1 39 5 6 9 30 8 54 0 39 -2 42 -28 42 -22 0 -28 -5 -33 -27z"/>
<path d="M2762 424 c-12 -8 -22 -22 -22 -30 0 -19 -16 -18 -24 1 -8 21 -49 19
-69 -3 -25 -27 -22 -78 5 -96 30 -21 43 -20 68 6 18 19 24 21 50 11 16 -6 31
-8 34 -5 11 10 6 40 -6 45 -10 3 -9 12 4 39 23 49 5 64 -40 32z m-68 -79 c3
-9 0 -15 -9 -15 -8 0 -15 7 -15 15 0 8 4 15 9 15 5 0 11 -7 15 -15z"/>
<path d="M1670 405 c-6 -17 -17 -25 -33 -25 -17 0 -29 -10 -42 -34 -17 -32
-17 -34 1 -59 22 -30 68 -36 99 -13 16 12 21 11 34 -5 9 -11 31 -22 49 -25 30
-6 34 -4 44 24 l12 30 15 -32 c10 -18 25 -32 39 -34 26 -4 29 14 7 42 -21 27
-19 35 10 46 30 11 32 26 6 35 -27 8 -71 -11 -72 -32 -1 -12 -3 -9 -8 7 -10
37 -35 32 -39 -8 -3 -25 -8 -32 -20 -30 -12 2 -17 13 -17 37 0 19 -6 36 -12
38 -7 3 -13 0 -13 -6 0 -6 -5 -11 -11 -11 -7 0 -8 14 -4 40 6 36 5 40 -14 40
-14 0 -25 -9 -31 -25z m-2 -77 c-4 -27 -23 -34 -32 -13 -8 21 1 35 20 35 10 0
14 -8 12 -22z"/>
<path d="M2155 369 c-8 -23 -28 -25 -45 -4 -7 8 -21 15 -32 15 -17 0 -19 -5
-13 -30 5 -23 3 -30 -8 -30 -8 0 -17 7 -21 15 -3 9 -18 15 -36 15 -25 0 -30
-4 -30 -25 0 -14 -7 -28 -15 -31 -8 -4 -15 -14 -15 -25 0 -40 88 -54 114 -18
15 22 36 18 36 -7 0 -10 13 -14 49 -14 28 0 52 4 55 9 3 4 3 38 -1 74 -6 66
-26 96 -38 56z m-5 -78 c0 -34 -9 -44 -27 -30 -16 14 -17 41 -1 57 16 16 28 5
28 -27z"/>
<path d="M2373 360 c-14 -6 -23 -18 -23 -31 0 -20 -1 -20 -31 5 -37 31 -43 32
-69 6 -24 -24 -26 -57 -4 -88 22 -32 60 -29 83 9 l19 30 6 -25 c11 -43 36 -32
36 14 0 29 4 40 15 40 8 0 15 -9 15 -19 0 -33 11 -51 31 -51 27 0 34 24 19 63
-22 54 -48 67 -97 47z m-77 -76 c-5 -13 -10 -14 -18 -6 -6 6 -8 18 -4 28 5 13
10 14 18 6 6 -6 8 -18 4 -28z"/>
</g>
</svg>
