<?xml version="1.0" standalone="no"?>
<!DOCTYPE svg PUBLIC "-//W3C//DTD SVG 20010904//EN"
 "http://www.w3.org/TR/2001/REC-SVG-20010904/DTD/svg10.dtd">
<svg version="1.0" xmlns="http://www.w3.org/2000/svg"
 width="312.000000pt" height="138.000000pt" viewBox="0 0 312.000000 138.000000"
 preserveAspectRatio="xMidYMid meet">
<metadata>
Created by potrace 1.10, written by Peter Selinger 2001-2011
</metadata>
<g transform="translate(0.000000,138.000000) scale(0.100000,-0.100000)"
fill="#729c4f" stroke="none">
<path d="M1220 1239 c-366 -44 -464 -63 -695 -136 -206 -64 -398 -176 -467
-271 -47 -67 -58 -104 -58 -210 0 -83 3 -99 29 -150 37 -71 79 -117 159 -171
79 -53 180 -100 314 -145 295 -99 557 -131 1078 -130 625 0 953 54 1279 212
97 47 125 66 188 128 69 70 73 76 73 119 0 56 -17 59 -52 10 -43 -61 -123
-121 -230 -174 -124 -61 -221 -96 -373 -135 -331 -85 -859 -129 -1150 -96 -44
5 -114 12 -155 15 -260 21 -606 106 -795 196 -133 63 -167 86 -237 155 -143
140 -144 253 -4 390 89 87 242 171 396 219 30 10 73 23 95 30 22 7 63 17 90
23 28 6 70 16 95 23 25 6 79 15 120 20 41 5 84 13 95 18 11 5 70 12 130 15 61
3 126 11 145 16 44 13 521 13 575 0 22 -5 92 -12 155 -16 63 -4 122 -11 132
-15 9 -5 51 -13 95 -18 43 -6 98 -15 123 -22 25 -6 61 -15 80 -20 186 -45 357
-111 475 -182 44 -27 123 -97 146 -131 31 -46 49 -46 49 -1 0 19 -5 35 -11 35
-6 0 -37 24 -69 53 -33 29 -78 63 -102 75 -45 24 -67 36 -95 52 -10 6 -29 15
-43 20 -14 6 -34 14 -45 19 -172 74 -457 141 -735 172 -123 14 -703 20 -800 8z"/>
<path d="M483 892 c-15 -11 -40 -70 -59 -142 -14 -56 -15 -74 -4 -130 17 -90
54 -170 79 -170 23 0 34 25 21 48 -36 66 -45 102 -45 177 0 67 5 90 28 138 15
32 27 60 27 62 0 10 -37 23 -47 17z"/>
<path d="M897 893 c-9 -9 -9 -48 0 -57 19 -19 43 -107 43 -159 0 -57 -24 -152
-41 -163 -11 -7 -12 -61 -1 -68 12 -7 52 22 52 37 0 7 8 26 17 42 25 43 25
256 0 300 -9 17 -17 35 -17 42 0 7 -9 17 -19 23 -23 12 -26 12 -34 3z"/>
<path d="M1221 877 c-6 -6 -11 -26 -11 -44 0 -31 -2 -33 -34 -33 -21 0 -42 -9
-60 -25 -22 -21 -26 -32 -26 -82 0 -79 7 -97 41 -117 28 -16 33 -17 64 -2 18
9 38 16 44 16 7 0 11 31 11 88 0 48 5 105 10 127 5 22 7 47 4 57 -6 21 -29 29
-43 15z m-3 -166 c7 -67 -16 -99 -59 -86 -26 9 -27 99 -1 114 33 20 57 9 60
-28z"/>
<path d="M2661 876 c-7 -8 -21 -38 -31 -67 -18 -48 -18 -54 -4 -70 13 -14 14
-30 9 -82 -7 -60 -5 -66 15 -77 16 -9 25 -9 36 1 12 10 14 26 8 80 -6 58 -4
70 10 75 20 8 21 38 1 54 -22 18 -19 29 11 40 38 15 30 54 -12 58 -18 2 -36
-3 -43 -12z"/>
<path d="M655 838 c-41 -15 -91 -72 -98 -111 -3 -17 -9 -41 -13 -51 -6 -17 -4
-18 27 -13 30 6 38 2 68 -28 46 -47 75 -54 107 -24 20 18 24 32 24 76 0 51 -2
54 -35 70 -33 16 -35 15 -69 -8 -20 -13 -36 -29 -36 -36 0 -22 -23 -26 -37 -8
-12 17 -9 23 24 57 33 34 42 38 88 38 43 0 55 -5 86 -33 32 -29 35 -38 35 -82
-1 -42 -6 -54 -37 -87 -32 -33 -41 -38 -83 -38 -40 0 -52 5 -90 40 -40 37 -56
42 -56 16 0 -25 67 -83 110 -95 38 -10 50 -10 80 3 50 22 74 45 98 94 26 50
27 71 7 98 -8 10 -15 27 -15 36 0 25 -49 71 -91 86 -41 14 -54 14 -94 0z"/>
<path d="M1873 843 c-24 -8 -46 -69 -34 -92 6 -11 11 -47 11 -81 0 -51 4 -65
25 -85 29 -30 51 -32 64 -6 8 14 6 22 -8 35 -28 25 -36 99 -15 131 15 23 15
27 0 60 -18 38 -25 44 -43 38z"/>
<path d="M1503 774 c-19 -21 -23 -37 -23 -92 0 -76 3 -81 46 -107 35 -20 78
-15 88 11 10 25 -2 34 -44 34 -42 0 -54 9 -44 34 4 10 18 16 41 16 74 0 95 43
47 99 -33 40 -79 42 -111 5z m78 -40 c10 -13 10 -17 -2 -25 -28 -18 -66 -1
-56 25 8 20 41 21 58 0z"/>
<path d="M1692 777 c-18 -19 -22 -35 -22 -93 0 -75 3 -82 40 -107 33 -23 67
-21 80 3 13 25 5 40 -21 40 -43 0 -59 18 -59 66 0 48 10 57 73 63 4 1 7 12 7
26 0 22 -4 25 -38 25 -27 0 -45 -7 -60 -23z"/>
<path d="M1970 776 c0 -13 7 -37 15 -52 8 -16 15 -39 15 -51 0 -12 4 -24 9
-27 4 -3 11 -19 14 -34 11 -54 81 -49 92 6 3 15 15 55 26 89 22 65 20 93 -5
93 -20 0 -39 -35 -45 -85 -8 -58 -33 -53 -48 10 -12 49 -33 75 -60 75 -7 0
-13 -11 -13 -24z"/>
<path d="M2210 775 c-28 -30 -40 -123 -20 -160 23 -42 97 -59 136 -31 27 20 6
39 -43 40 -31 1 -38 5 -38 21 0 16 8 21 45 25 43 5 45 6 48 41 7 78 -76 119
-128 64z m76 -61 c-20 -14 -46 -8 -46 11 0 18 21 24 44 12 19 -9 19 -10 2 -23z"/>
<path d="M2530 785 c-8 -9 -14 -50 -16 -105 -2 -82 -1 -91 18 -101 15 -8 24
-8 34 3 11 11 13 34 7 113 -8 99 -18 120 -43 90z"/>
<path d="M2886 778 c-9 -12 -16 -36 -16 -53 0 -16 -5 -37 -10 -45 -14 -22 -28
-2 -43 56 -9 39 -17 50 -35 52 -30 5 -38 -21 -18 -62 9 -19 16 -42 16 -53 1
-10 7 -29 15 -43 8 -14 14 -43 15 -65 0 -43 14 -65 40 -65 12 0 21 21 34 78
10 42 26 96 37 119 26 57 25 103 0 103 -11 0 -27 -10 -35 -22z"/>
<path d="M1405 781 l-30 -6 -3 -98 c-2 -90 -1 -98 15 -95 15 3 19 16 23 71 4
57 9 71 29 86 22 17 25 53 4 50 -4 -1 -21 -4 -38 -8z"/>
<path d="M2387 690 c-7 -107 3 -132 42 -111 19 11 20 17 15 67 -6 50 -5 57 20
83 37 38 27 58 -28 57 l-43 -1 -6 -95z"/>
<path d="M1294 768 c-4 -6 -8 -49 -10 -95 l-3 -84 27 3 27 3 -4 85 c-1 47 -5
88 -8 93 -6 11 -21 9 -29 -5z"/>
</g>
</svg>
